<svg width="158" height="150" viewBox="0 0 158 150" fill="none" xmlns="http://www.w3.org/2000/svg">
<g clip-path="url(#clip0_21449_23782)">
<path d="M130.501 85.1313C110.749 115.02 101.458 150 65.6324 150C29.8064 150 0.763672 120.957 0.763672 85.1313C0.763672 49.3053 33.1356 35.3445 65.6324 20.2626C171.184 -28.7243 174.698 18.2536 130.501 85.1313Z" fill="#3F3D56"/>
<path d="M123.537 29.4159C130.24 29.4159 135.675 23.9815 135.675 17.2779C135.675 10.5743 130.24 5.13989 123.537 5.13989C116.833 5.13989 111.399 10.5743 111.399 17.2779C111.399 23.9815 116.833 29.4159 123.537 29.4159Z" fill="#E6E6E6"/>
<path d="M122.343 10.3135C123.112 10.3135 123.735 9.68987 123.735 8.9206C123.735 8.15133 123.112 7.52771 122.343 7.52771C121.573 7.52771 120.95 8.15133 120.95 8.9206C120.95 9.68987 121.573 10.3135 122.343 10.3135Z" fill="#CBCBCB"/>
<path d="M124.731 24.2423C125.5 24.2423 126.123 23.6187 126.123 22.8494C126.123 22.0802 125.5 21.4565 124.731 21.4565C123.961 21.4565 123.338 22.0802 123.338 22.8494C123.338 23.6187 123.961 24.2423 124.731 24.2423Z" fill="#CBCBCB"/>
<path d="M130.103 16.084C130.653 16.084 131.098 15.6385 131.098 15.089C131.098 14.5396 130.653 14.0941 130.103 14.0941C129.554 14.0941 129.108 14.5396 129.108 15.089C129.108 15.6385 129.554 16.084 130.103 16.084Z" fill="#CBCBCB"/>
<path d="M118.761 21.4565C120.519 21.4565 121.945 20.0311 121.945 18.2727C121.945 16.5144 120.519 15.089 118.761 15.089C117.003 15.089 115.577 16.5144 115.577 18.2727C115.577 20.0311 117.003 21.4565 118.761 21.4565Z" fill="#CBCBCB"/>
<path d="M81.7501 37.9721C82.8491 37.9721 83.7399 37.0812 83.7399 35.9823C83.7399 34.8833 82.8491 33.9924 81.7501 33.9924C80.6511 33.9924 79.7603 34.8833 79.7603 35.9823C79.7603 37.0812 80.6511 37.9721 81.7501 37.9721Z" fill="#6C63FF"/>
<path d="M135.078 43.1457C136.177 43.1457 137.068 42.2548 137.068 41.1559C137.068 40.0569 136.177 39.166 135.078 39.166C133.979 39.166 133.088 40.0569 133.088 41.1559C133.088 42.2548 133.979 43.1457 135.078 43.1457Z" fill="#6C63FF"/>
<path d="M111.398 46.1305C112.058 46.1305 112.592 45.596 112.592 44.9366C112.592 44.2772 112.058 43.7427 111.398 43.7427C110.739 43.7427 110.205 44.2772 110.205 44.9366C110.205 45.596 110.739 46.1305 111.398 46.1305Z" fill="#E6E6E6"/>
<path d="M19.4681 83.7384C20.1274 83.7384 20.662 83.2039 20.662 82.5445C20.662 81.8851 20.1274 81.3506 19.4681 81.3506C18.8087 81.3506 18.2742 81.8851 18.2742 82.5445C18.2742 83.2039 18.8087 83.7384 19.4681 83.7384Z" fill="#E6E6E6"/>
<path d="M90.1075 115.775C90.7668 115.775 91.3014 115.24 91.3014 114.581C91.3014 113.921 90.7668 113.387 90.1075 113.387C89.4481 113.387 88.9136 113.921 88.9136 114.581C88.9136 115.24 89.4481 115.775 90.1075 115.775Z" fill="#E6E6E6"/>
<path d="M108.812 80.3628L108.216 80.9547L107.624 80.3588L107.227 80.7534L107.819 81.3494L107.223 81.9411L107.618 82.3385L108.213 81.7465L108.805 82.3425L109.203 81.9479L108.611 81.3519L109.207 80.7602L108.812 80.3628Z" fill="#6C63FF"/>
<path d="M29.8157 99.8634L29.2197 100.455L28.628 99.8591L28.2306 100.254L28.8225 100.85L28.2266 101.441L28.6212 101.839L29.217 101.247L29.8089 101.843L30.2063 101.448L29.6143 100.852L30.2103 100.261L29.8157 99.8634Z" fill="#E6E6E6"/>
<path d="M34.5913 65.2401L33.9954 65.8319L33.4036 65.2361L33.0062 65.6305L33.5982 66.2265L33.0022 66.8184L33.3968 67.2156L33.9926 66.6239L34.5845 67.2196L34.9819 66.8252L34.39 66.2292L34.9859 65.6373L34.5913 65.2401Z" fill="#E6E6E6"/>
<path d="M138.66 28.4281L138.064 29.0199L137.472 28.4241L137.075 28.8185L137.667 29.4145L137.071 30.0064L137.465 30.4036L138.061 29.8118L138.653 30.4076L139.05 30.0132L138.458 29.4172L139.054 28.8253L138.66 28.4281Z" fill="#E6E6E6"/>
<path d="M91.6997 44.9437L91.1037 45.5357L90.5118 44.9397L90.1146 45.3343L90.7064 45.9301L90.1106 46.522L90.505 46.9194L91.101 46.3275L91.6929 46.9234L92.0901 46.5288L91.4984 45.9329L92.0942 45.3411L91.6997 44.9437Z" fill="#E6E6E6"/>
<path opacity="0.8" d="M95.8326 74.4483L101.879 67.3704L107.924 60.2924L111.337 56.2968C111.526 56.0757 111.235 55.7308 111.046 55.9519L105 63.0298L98.9542 70.1078L95.5412 74.1034C95.3523 74.3245 95.6437 74.6694 95.8326 74.4483Z" fill="url(#paint0_linear_21449_23782)"/>
<path opacity="0.8" d="M85.0874 99.9182L91.1334 92.8402L97.1793 85.7622L100.592 81.7666C100.781 81.5455 100.49 81.2006 100.301 81.4217L94.255 88.4997L88.2091 95.5777L84.796 99.5733C84.6072 99.7944 84.8986 100.139 85.0874 99.9182Z" fill="url(#paint1_linear_21449_23782)"/>
<path d="M54.5889 60.7559H65.9309V65.2189C65.9309 65.9879 65.6255 66.7253 65.0817 67.2691C64.538 67.8128 63.8006 68.1183 63.0316 68.1183H57.4882C56.7193 68.1183 55.9818 67.8128 55.4381 67.2691C54.8943 66.7253 54.5889 65.9879 54.5889 65.2189V60.7559H54.5889Z" fill="#2F2E41"/>
<path d="M69.7115 120.053C67.1287 122.67 64.5419 122.687 61.9512 120.137L59.9613 102.542L58.5684 120.174C55.9795 122.27 53.5668 122.552 51.405 120.252C49.3429 105.018 48.222 90.8656 50.0121 80.0573L46.2314 64.7355L54.7877 60.7559C56.5108 65.018 53.7933 67.198 59.9384 67.1251C66.0294 67.0527 65.5745 64.7615 65.3339 60.7559L73.2049 63.7832C73.8752 64.041 74.422 64.5448 74.7336 65.1919C75.0453 65.8389 75.0984 66.5805 74.8821 67.2654L70.9054 79.8583C72.4364 86.2153 70.8645 103.899 69.7115 120.053Z" fill="#E6E6E6"/>
<path d="M57.7726 135.375C57.7726 135.375 51.4204 135.931 50.5694 135.581C50.5157 135.559 50.4635 135.535 50.4126 135.509C49.148 134.863 49.1095 133.055 50.2914 132.268L52.798 130.599L50.6091 118.859L59.066 118.959L57.7726 135.375Z" fill="#2F2E41"/>
<path d="M62.5481 135.474C62.5481 135.474 68.9003 136.031 69.7512 135.68C69.805 135.658 69.8572 135.634 69.9081 135.608C71.1727 134.962 71.2112 133.154 70.0293 132.367L67.5227 130.699L70.607 118.958H61.7522L62.5481 135.474Z" fill="#2F2E41"/>
<path d="M47.6243 93.5881L48.8834 98.6245C49.0382 99.2436 48.9939 99.8956 48.7568 100.488C48.5198 101.08 48.102 101.583 47.563 101.925C47.1274 102.2 46.6287 102.361 46.114 102.39C45.5993 102.42 45.0855 102.318 44.6211 102.094C44.1566 101.87 43.7569 101.532 43.4596 101.111C43.1623 100.689 42.9772 100.199 42.9218 99.6868L42.6497 97.1698L41.6548 73.2477C41.6548 71.258 42.2446 69.3129 43.3497 67.6584C44.4548 66.0038 46.0256 64.714 47.8636 63.9519L49.8131 63.1436L47.6243 93.5881Z" fill="#E6E6E6"/>
<path d="M79.2628 73.049L79.2568 73.1903L78.453 92.4996L78.2978 96.2306L78.2679 96.9708L77.9953 99.4879C77.9506 99.9016 77.8213 100.302 77.6154 100.663C77.4096 101.025 77.1316 101.34 76.7986 101.59C76.4657 101.84 76.085 102.018 75.6802 102.115C75.2754 102.211 74.855 102.223 74.4454 102.15C74.0357 102.077 73.6454 101.92 73.2988 101.69C72.9522 101.46 72.6566 101.161 72.4304 100.812C72.2043 100.462 72.0523 100.07 71.9841 99.6597C71.9159 99.2492 71.9327 98.8291 72.0337 98.4254L73.2933 93.3891L73.2654 93.015L73.0983 90.675L71.1045 62.9446L73.0545 63.7525C74.8914 64.5163 76.461 65.8067 77.5658 67.461C78.6706 69.1153 79.2611 71.0596 79.2628 73.049Z" fill="#E6E6E6"/>
<path d="M60.7684 95.0228C53.5403 95.0228 49.0816 92.5161 49.0186 92.4797L49.2174 92.135C49.3062 92.1863 58.2485 97.2023 71.3862 92.8544L71.5114 93.2321C68.0495 94.4009 64.4222 95.0055 60.7684 95.0228Z" fill="#2F2E41"/>
<path d="M53.611 113.368C52.0203 109.789 52.0122 94.2329 52.0127 93.5724L52.4107 93.5728C52.4106 93.7337 52.4181 109.704 53.9748 113.207L53.611 113.368Z" fill="#2F2E41"/>
<path d="M54.4384 113.529C53.0215 113.529 52.08 113.227 51.4662 112.881C50.3487 112.251 50.1181 111.392 50.1089 111.356L50.4944 111.257L50.3017 111.307L50.4941 111.256C50.5022 111.286 50.7034 112.001 51.6793 112.544C52.7538 113.142 54.9167 113.588 59.1167 112.318L59.2317 112.698C57.2217 113.306 55.6549 113.529 54.4384 113.529Z" fill="#2F2E41"/>
<path d="M50.8841 62.6542L50.4866 62.6737L52.013 93.84L52.4105 93.8205L50.8841 62.6542Z" fill="#2F2E41"/>
<path d="M67.1077 113.368L66.7439 113.207C68.3006 109.704 68.3082 93.7337 68.308 93.5728L68.7059 93.5724C68.7063 94.2329 68.6984 109.789 67.1077 113.368Z" fill="#2F2E41"/>
<path d="M66.2801 113.529C65.0637 113.529 63.4973 113.307 61.4868 112.698L61.6019 112.318C65.8019 113.587 67.9643 113.142 69.0393 112.544C70.0151 112.001 70.2163 111.286 70.2242 111.256L70.6096 111.356C70.6002 111.392 70.3698 112.251 69.2522 112.881C68.6386 113.227 67.6967 113.529 66.2801 113.529Z" fill="#2F2E41"/>
<path d="M69.8329 62.6541L68.3096 93.8206L68.7071 93.84L70.2304 62.6735L69.8329 62.6541Z" fill="#2F2E41"/>
<path d="M65.9069 67.3223L62.9459 71.6998H56.5784L54.4495 67.3223H55.3847L56.9765 70.9039H62.349L64.9359 67.3223H65.9069Z" fill="#6C63FF"/>
<path d="M73.0942 69.5111L73.146 69.6145L73.0942 69.7101V69.5111Z" fill="black"/>
<path d="M79.6607 73.049L79.6547 73.1903L75.88 74.2867L73.5439 69.6145L75.9337 65.2329C77.0982 66.1756 78.0373 67.3666 78.6821 68.719C79.327 70.0713 79.6613 71.5508 79.6607 73.049Z" fill="#6C63FF"/>
<path d="M41.4102 73.049L41.4161 73.1903L45.1908 74.2867L47.5269 69.6145L45.1371 65.2329C43.9726 66.1756 43.0336 67.3666 42.3887 68.719C41.7439 70.0713 41.4095 71.5508 41.4102 73.049Z" fill="#6C63FF"/>
<path d="M60.2598 64.0391C66.0842 64.0391 70.8059 59.3174 70.8059 53.4929C70.8059 47.6684 66.0842 42.9468 60.2598 42.9468C54.4353 42.9468 49.7136 47.6684 49.7136 53.4929C49.7136 59.3174 54.4353 64.0391 60.2598 64.0391Z" fill="#E6E6E6"/>
<path d="M60.2599 62.6461C64.5458 62.6461 68.0202 59.1717 68.0202 54.8857C68.0202 50.5998 64.5458 47.1254 60.2599 47.1254C55.9739 47.1254 52.4995 50.5998 52.4995 54.8857C52.4995 59.1717 55.9739 62.6461 60.2599 62.6461Z" fill="#2F2E41"/>
<path d="M78.5663 92.4998L78.4047 96.2307L73.3011 93.4887L73.1687 93.0151L72.9946 90.675L78.5663 92.4998Z" fill="#6C63FF"/>
<path d="M42.2656 92.4998L42.4354 96.2307L47.7997 93.4887L47.939 93.0151L48.1219 90.675L42.2656 92.4998Z" fill="#6C63FF"/>
<path d="M63.0519 71.899H56.4541L52.8011 64.3898L52.6133 61.6889L53.0103 61.6614L53.1927 64.2851L56.7033 71.5009H62.8404L67.3423 64.8462L68.3006 61.908L68.6792 62.0312L67.6876 65.0461L63.0519 71.899Z" fill="#2F2E41"/>
</g>
<defs>
<linearGradient id="paint0_linear_21449_23782" x1="95.48" y1="65.2001" x2="111.399" y2="65.2001" gradientUnits="userSpaceOnUse">
<stop stop-color="white"/>
<stop offset="1" stop-color="white" stop-opacity="0.3"/>
</linearGradient>
<linearGradient id="paint1_linear_21449_23782" x1="84.7349" y1="90.67" x2="100.654" y2="90.67" gradientUnits="userSpaceOnUse">
<stop stop-color="white"/>
<stop offset="1" stop-color="white" stop-opacity="0.3"/>
</linearGradient>
<clipPath id="clip0_21449_23782">
<rect width="156.473" height="150" fill="white" transform="translate(0.763672)"/>
</clipPath>
</defs>
</svg>
