<svg width="229" height="88" viewBox="0 0 229 88" fill="none" xmlns="http://www.w3.org/2000/svg">
<path d="M9.72238 25.4286L28.8804 0.732361H23.3055L4.71846 24.712V0.732361H0V50.0524H4.71846V26.8604L26.6652 50.0524H33.0266L9.72238 25.4286Z" fill="#FAFAFA"/>
<path d="M76.3409 0.732361H71.6224V23.3527H44.6008V0.732361H39.8823V50.0524H44.6008V27.7903H71.6224V50.0524H76.3409V0.732361Z" fill="#FAFAFA"/>
<path d="M87.3418 25.4997C87.3418 39.5292 98.0639 50.7676 112.076 50.7676C126.087 50.7676 136.881 39.5292 136.881 25.4997C136.881 11.5413 126.087 0.159363 112.076 0.159363C98.0639 0.159363 87.3418 11.5413 87.3418 25.4997ZM92.059 25.4997C92.059 14.0466 100.709 4.88416 112.076 4.88416C123.441 4.88416 132.163 14.0466 132.163 25.4997C132.163 36.8816 123.441 46.0441 112.076 46.0441C100.709 46.0441 92.059 36.8816 92.059 25.4997Z" fill="#FAFAFA"/>
<path d="M166.753 30.7962C176.261 30.5815 179.835 23.2091 179.835 15.8367C179.835 8.17719 176.19 0.732361 166.18 0.732361H147.88V50.0524H152.67V30.7962H160.962L174.545 50.0524H180.336L166.753 30.7962ZM166.18 5.45716C172.758 5.45716 175.116 10.6101 175.116 15.8367C175.116 21.0621 172.758 26.0727 165.824 26.0727H152.67V5.45716H166.18Z" fill="#FAFAFA"/>
<path d="M190.622 50.0524L195.555 37.0964H218.358L223.363 50.0524H228.438L209.495 0.732361H204.491L185.547 50.0524H190.622ZM216.715 32.6574H197.27L206.993 7.31837L216.715 32.6574Z" fill="#FAFAFA"/>
<path d="M3.6799 79.0208C3.6799 75.2674 6.34332 73.8835 8.77682 73.8835C11.1444 73.8835 12.4929 75.5959 12.4929 78.4608V87.4176H14.6965V78.4608C14.7288 74.2456 12.5588 71.7105 8.77682 71.7105C7.00078 71.7105 4.63315 72.5668 3.6799 74.5754V63.7083H1.47632V87.4176H3.6799V79.0208Z" fill="white"/>
<path d="M26.5316 87.7474C29.6548 87.7474 32.2537 86.1669 33.5363 83.4003C32.8452 83.236 31.9902 83.0705 31.3327 82.9062C30.3794 84.5863 28.6357 85.5732 26.5316 85.5732C23.7028 85.5732 21.3688 83.6965 21.0071 80.6997H34.0297C34.062 80.4035 34.062 80.0413 34.062 79.6792C34.062 74.8056 30.9052 71.7105 26.5316 71.7105C22.158 71.7105 18.7712 74.8056 18.7712 79.6792C18.7712 84.5527 22.158 87.7474 26.5316 87.7474ZM21.0071 78.6587C21.4347 75.7278 23.6369 73.8834 26.5316 73.8834C29.3926 73.8834 31.3986 75.7278 31.8261 78.6587H21.0071Z" fill="white"/>
<path d="M52.9352 72.0403H50.7317V74.5754C49.5808 72.6327 47.1796 71.7105 44.9437 71.7105C40.5701 71.7105 37.0852 74.8056 37.0852 79.6792C37.0852 84.5527 40.5701 87.7474 44.9437 87.7474C47.1796 87.7474 49.5808 86.7256 50.7317 84.7829V87.4176H52.9352V72.0403ZM39.2875 79.6792C39.2875 76.1559 41.7546 73.9171 44.9437 73.9171C47.7066 73.9171 50.7317 75.8597 50.7317 79.6792C50.7317 83.4986 48.1005 85.5409 44.9437 85.5409C41.7546 85.5409 39.2875 83.1041 39.2875 79.6792Z" fill="white"/>
<path d="M60.4303 63.7083H58.259V87.4176H60.4303V63.7083Z" fill="white"/>
<path d="M68.9784 87.4176V74.0154H72.2346V72.0404H68.9784V66.277H66.7748V72.0404H64.0132V74.0154H66.7748V87.4176H68.9784Z" fill="white"/>
<path d="M78.0862 79.0208C78.0862 75.2674 80.7496 73.8835 83.1831 73.8835C85.5507 73.8835 86.8992 75.5959 86.8992 78.4608V87.4176H89.1028V78.4608C89.1351 74.2456 86.9651 71.7105 83.1831 71.7105C81.407 71.7105 79.0394 72.5668 78.0862 74.5754V63.7083H75.8826V87.4176H78.0862V79.0208Z" fill="white"/>
<path d="M101.759 83.0045C101.858 86.0349 104.554 87.7474 107.119 87.7474C110.31 87.7474 112.743 85.903 112.743 83.236C112.743 81.1278 111.756 79.4489 108.862 78.757L106.758 78.2629C105.705 78.0003 104.126 77.4403 104.488 75.6955C104.653 74.6077 105.87 73.8175 107.349 73.8175C108.665 73.8175 109.783 74.5094 110.046 75.6955H112.184C111.756 72.8953 109.75 71.7105 107.349 71.7105C104.85 71.7105 102.713 73.1591 102.35 75.3657C101.924 78.9549 104.356 79.943 106.232 80.3711L108.37 80.8652C109.98 81.2597 110.572 82.2142 110.572 83.236C110.572 84.6846 109.289 85.6728 107.317 85.6728C104.719 85.6728 103.962 84.1906 103.699 83.0045H101.759Z" fill="white"/>
<path d="M123.889 87.7474C128.262 87.7474 131.913 84.5527 131.913 79.6792C131.913 74.8056 128.262 71.7105 123.889 71.7105C119.514 71.7105 115.865 74.8056 115.865 79.6792C115.865 84.5527 119.514 87.7474 123.889 87.7474ZM123.889 85.5732C120.698 85.5732 118.035 83.236 118.035 79.6792C118.035 76.1223 120.698 73.8834 123.889 73.8834C127.078 73.8834 129.741 76.1223 129.741 79.6792C129.741 83.236 127.078 85.5732 123.889 85.5732Z" fill="white"/>
<path d="M138.355 63.7083H136.183V87.4176H138.355V63.7083Z" fill="white"/>
<path d="M154.499 80.4371C154.499 84.1906 151.835 85.5732 149.402 85.5732C147.034 85.5732 145.686 83.8608 145.686 80.9959V72.0403H143.482V80.9959C143.45 85.2111 145.62 87.7474 149.402 87.7474C151.178 87.7474 153.546 86.8912 154.499 84.8825V87.4176H156.702V72.0403H154.499V80.4371Z" fill="white"/>
<path d="M165.249 87.4176V74.0154H168.506V72.0404H165.249V66.277H163.046V72.0404H160.284V74.0154H163.046V87.4176H165.249Z" fill="white"/>
<path d="M174.325 72.0404H172.154V87.4176H174.325V72.0404ZM171.594 66.3106C171.594 67.2328 172.351 67.8911 173.272 67.8911C174.193 67.8911 174.949 67.2328 174.949 66.3106C174.949 65.3884 174.193 64.73 173.272 64.73C172.351 64.73 171.594 65.3884 171.594 66.3106Z" fill="white"/>
<path d="M186.622 87.7474C190.996 87.7474 194.646 84.5527 194.646 79.6792C194.646 74.8056 190.996 71.7105 186.622 71.7105C182.248 71.7105 178.599 74.8056 178.599 79.6792C178.599 84.5527 182.248 87.7474 186.622 87.7474ZM186.622 85.5732C183.432 85.5732 180.769 83.236 180.769 79.6792C180.769 76.1223 183.432 73.8834 186.622 73.8834C189.812 73.8834 192.475 76.1223 192.475 79.6792C192.475 83.236 189.812 85.5732 186.622 85.5732Z" fill="white"/>
<path d="M201.121 79.0208C201.121 75.2674 203.784 73.8834 206.218 73.8834C208.586 73.8834 209.934 75.5959 209.934 78.4608V87.4176H212.138V78.4608C212.17 74.2456 210 71.7105 206.218 71.7105C204.442 71.7105 202.074 72.5667 201.121 74.5754V72.0403H198.917V87.4176H201.121V79.0208Z" fill="white"/>
<path d="M216.047 83.0045C216.147 86.0349 218.843 87.7474 221.408 87.7474C224.598 87.7474 227.032 85.903 227.032 83.236C227.032 81.1278 226.045 79.4489 223.15 78.757L221.046 78.2629C219.993 78.0003 218.415 77.4403 218.777 75.6955C218.942 74.6077 220.159 73.8175 221.638 73.8175C222.954 73.8175 224.071 74.5094 224.335 75.6955H226.472C226.045 72.8953 224.039 71.7105 221.638 71.7105C219.138 71.7105 217.002 73.1591 216.639 75.3657C216.213 78.9549 218.645 79.943 220.52 80.3711L222.658 80.8652C224.269 81.2597 224.86 82.2142 224.86 83.236C224.86 84.6846 223.578 85.6728 221.605 85.6728C219.008 85.6728 218.251 84.1906 217.987 83.0045H216.047Z" fill="white"/>
</svg>
