<svg width="64" height="14" viewBox="0 0 64 14" fill="none" xmlns="http://www.w3.org/2000/svg">
<path d="M2.69316 6.99028L8.00005 0.158447H6.45579L1.30704 6.79206V0.158447H0V13.8021H1.30704V7.38637L7.38642 13.8021H9.14859L2.69316 6.99028Z" fill="#386EEC"/>
<path d="M21.1469 0.158447H19.8398V6.41601H12.3547V0.158447H11.0476V13.8021H12.3547V7.64362H19.8398V13.8021H21.1469V0.158447Z" fill="#386EEC"/>
<path d="M24.1943 7.01002C24.1943 10.8911 27.1644 14 31.0458 14C34.9269 14 37.917 10.8911 37.917 7.01002C37.917 3.14864 34.9269 0 31.0458 0C27.1644 0 24.1943 3.14864 24.1943 7.01002ZM25.501 7.01002C25.501 3.8417 27.8972 1.30704 31.0458 1.30704C34.1941 1.30704 36.61 3.8417 36.61 7.01002C36.61 10.1587 34.1941 12.6933 31.0458 12.6933C27.8972 12.6933 25.501 10.1587 25.501 7.01002Z" fill="#386EEC"/>
<path d="M46.1917 8.47515C48.8255 8.41576 49.8155 6.3763 49.8155 4.33684C49.8155 2.21794 48.8058 0.158447 46.0332 0.158447H40.9639V13.8021H42.2906V8.47515H44.5877L48.3503 13.8021H49.9543L46.1917 8.47515ZM46.0332 1.46549C47.8551 1.46549 48.5084 2.89097 48.5084 4.33684C48.5084 5.78235 47.8551 7.16847 45.9344 7.16847H42.2906V1.46549H46.0332Z" fill="#386EEC"/>
<path d="M52.8035 13.8021L54.1699 10.218H60.4865L61.873 13.8021H63.2788L58.0313 0.158447H56.6452L51.3977 13.8021H52.8035ZM60.0314 8.99003H54.6451L57.3383 1.98037L60.0314 8.99003Z" fill="#386EEC"/>
</svg>
