<svg width="237" height="238" viewBox="0 0 237 238" fill="none" xmlns="http://www.w3.org/2000/svg">
<path d="M237 119C237 184.446 183.946 237.5 118.5 237.5C53.0543 237.5 0 184.446 0 119C0 53.5542 53.0543 0.499878 118.5 0.499878C183.946 0.499878 237 53.5542 237 119ZM35.55 119C35.55 164.812 72.688 201.95 118.5 201.95C164.312 201.95 201.45 164.812 201.45 119C201.45 73.1879 164.312 36.0499 118.5 36.0499C72.688 36.0499 35.55 73.1879 35.55 119Z" fill="#EFF7FE"/>
<path d="M99.056 113.748C99.056 114.548 98.856 115.3 98.456 116.004C98.072 116.708 97.496 117.3 96.728 117.78C95.976 118.26 95.08 118.548 94.04 118.644V120.588H92.48V118.644C90.976 118.5 89.76 118.028 88.832 117.228C87.904 116.428 87.44 115.372 87.44 114.06H90.368C90.416 114.684 90.616 115.204 90.968 115.62C91.32 116.02 91.824 116.276 92.48 116.388V111.108C91.408 110.836 90.536 110.564 89.864 110.292C89.192 110.004 88.616 109.556 88.136 108.948C87.672 108.34 87.44 107.508 87.44 106.452C87.44 105.124 87.904 104.028 88.832 103.164C89.76 102.284 90.976 101.772 92.48 101.628V99.684H94.04V101.628C95.448 101.756 96.576 102.204 97.424 102.972C98.288 103.724 98.776 104.764 98.888 106.092H95.96C95.912 105.596 95.72 105.156 95.384 104.772C95.048 104.372 94.6 104.1 94.04 103.956V109.14C95.112 109.396 95.984 109.668 96.656 109.956C97.328 110.228 97.896 110.668 98.36 111.276C98.824 111.868 99.056 112.692 99.056 113.748ZM90.224 106.308C90.224 106.964 90.416 107.476 90.8 107.844C91.2 108.212 91.76 108.508 92.48 108.732V103.884C91.792 103.964 91.24 104.212 90.824 104.628C90.424 105.044 90.224 105.604 90.224 106.308ZM94.04 116.388C94.744 116.276 95.296 115.996 95.696 115.548C96.096 115.084 96.296 114.532 96.296 113.892C96.296 113.252 96.096 112.756 95.696 112.404C95.312 112.036 94.76 111.74 94.04 111.516V116.388ZM102.649 109.524C102.649 106.756 103.113 104.596 104.041 103.044C104.985 101.476 106.601 100.692 108.889 100.692C111.177 100.692 112.785 101.476 113.713 103.044C114.657 104.596 115.129 106.756 115.129 109.524C115.129 112.324 114.657 114.516 113.713 116.1C112.785 117.668 111.177 118.452 108.889 118.452C106.601 118.452 104.985 117.668 104.041 116.1C103.113 114.516 102.649 112.324 102.649 109.524ZM112.441 109.524C112.441 108.228 112.353 107.132 112.177 106.236C112.017 105.34 111.681 104.612 111.169 104.052C110.657 103.476 109.897 103.188 108.889 103.188C107.881 103.188 107.121 103.476 106.609 104.052C106.097 104.612 105.753 105.34 105.577 106.236C105.417 107.132 105.337 108.228 105.337 109.524C105.337 110.868 105.417 111.996 105.577 112.908C105.737 113.82 106.073 114.556 106.585 115.116C107.113 115.676 107.881 115.956 108.889 115.956C109.897 115.956 110.657 115.676 111.169 115.116C111.697 114.556 112.041 113.82 112.201 112.908C112.361 111.996 112.441 110.868 112.441 109.524ZM119.088 118.668C118.592 118.668 118.176 118.5 117.84 118.164C117.504 117.828 117.336 117.412 117.336 116.916C117.336 116.42 117.504 116.004 117.84 115.668C118.176 115.332 118.592 115.164 119.088 115.164C119.568 115.164 119.976 115.332 120.312 115.668C120.648 116.004 120.816 116.42 120.816 116.916C120.816 117.412 120.648 117.828 120.312 118.164C119.976 118.5 119.568 118.668 119.088 118.668ZM123.013 109.524C123.013 106.756 123.477 104.596 124.405 103.044C125.349 101.476 126.965 100.692 129.253 100.692C131.541 100.692 133.149 101.476 134.077 103.044C135.021 104.596 135.493 106.756 135.493 109.524C135.493 112.324 135.021 114.516 134.077 116.1C133.149 117.668 131.541 118.452 129.253 118.452C126.965 118.452 125.349 117.668 124.405 116.1C123.477 114.516 123.013 112.324 123.013 109.524ZM132.805 109.524C132.805 108.228 132.717 107.132 132.541 106.236C132.381 105.34 132.045 104.612 131.533 104.052C131.021 103.476 130.261 103.188 129.253 103.188C128.245 103.188 127.485 103.476 126.973 104.052C126.461 104.612 126.117 105.34 125.941 106.236C125.781 107.132 125.701 108.228 125.701 109.524C125.701 110.868 125.781 111.996 125.941 112.908C126.101 113.82 126.437 114.556 126.949 115.116C127.477 115.676 128.245 115.956 129.253 115.956C130.261 115.956 131.021 115.676 131.533 115.116C132.061 114.556 132.405 113.82 132.565 112.908C132.725 111.996 132.805 110.868 132.805 109.524ZM137.988 109.524C137.988 106.756 138.452 104.596 139.38 103.044C140.324 101.476 141.94 100.692 144.228 100.692C146.516 100.692 148.124 101.476 149.052 103.044C149.996 104.596 150.468 106.756 150.468 109.524C150.468 112.324 149.996 114.516 149.052 116.1C148.124 117.668 146.516 118.452 144.228 118.452C141.94 118.452 140.324 117.668 139.38 116.1C138.452 114.516 137.988 112.324 137.988 109.524ZM147.78 109.524C147.78 108.228 147.692 107.132 147.516 106.236C147.356 105.34 147.02 104.612 146.508 104.052C145.996 103.476 145.236 103.188 144.228 103.188C143.22 103.188 142.46 103.476 141.948 104.052C141.436 104.612 141.092 105.34 140.916 106.236C140.756 107.132 140.676 108.228 140.676 109.524C140.676 110.868 140.756 111.996 140.916 112.908C141.076 113.82 141.412 114.556 141.924 115.116C142.452 115.676 143.22 115.956 144.228 115.956C145.236 115.956 145.996 115.676 146.508 115.116C147.036 114.556 147.38 113.82 147.54 112.908C147.7 111.996 147.78 110.868 147.78 109.524Z" fill="#13181D"/>
<path d="M44.268 133.264V135.712H47.148V136.828H44.268V139.384H47.508V140.5H42.9V132.148H47.508V133.264H44.268ZM52.741 140.584C52.181 140.584 51.677 140.488 51.229 140.296C50.781 140.096 50.429 139.816 50.173 139.456C49.917 139.096 49.789 138.676 49.789 138.196H51.253C51.285 138.556 51.425 138.852 51.673 139.084C51.929 139.316 52.285 139.432 52.741 139.432C53.213 139.432 53.581 139.32 53.845 139.096C54.109 138.864 54.241 138.568 54.241 138.208C54.241 137.928 54.157 137.7 53.989 137.524C53.829 137.348 53.625 137.212 53.377 137.116C53.137 137.02 52.801 136.916 52.369 136.804C51.825 136.66 51.381 136.516 51.037 136.372C50.701 136.22 50.413 135.988 50.173 135.676C49.933 135.364 49.813 134.948 49.813 134.428C49.813 133.948 49.933 133.528 50.173 133.168C50.413 132.808 50.749 132.532 51.181 132.34C51.613 132.148 52.113 132.052 52.681 132.052C53.489 132.052 54.149 132.256 54.661 132.664C55.181 133.064 55.469 133.616 55.525 134.32H54.013C53.989 134.016 53.845 133.756 53.581 133.54C53.317 133.324 52.969 133.216 52.537 133.216C52.145 133.216 51.825 133.316 51.577 133.516C51.329 133.716 51.205 134.004 51.205 134.38C51.205 134.636 51.281 134.848 51.433 135.016C51.593 135.176 51.793 135.304 52.033 135.4C52.273 135.496 52.601 135.6 53.017 135.712C53.569 135.864 54.017 136.016 54.361 136.168C54.713 136.32 55.009 136.556 55.249 136.876C55.497 137.188 55.621 137.608 55.621 138.136C55.621 138.56 55.505 138.96 55.273 139.336C55.049 139.712 54.717 140.016 54.277 140.248C53.845 140.472 53.333 140.584 52.741 140.584ZM63.4232 132.16V133.276H61.2032V140.5H59.8352V133.276H57.6032V132.16H63.4232ZM66.9766 132.16V140.5H65.6086V132.16H66.9766ZM78.3567 132.16V140.5H76.9887V134.788L74.4447 140.5H73.4967L70.9407 134.788V140.5H69.5727V132.16H71.0487L73.9767 138.7L76.8927 132.16H78.3567ZM85.9827 138.796H82.4907L81.8907 140.5H80.4627L83.4507 132.148H85.0347L88.0227 140.5H86.5827L85.9827 138.796ZM85.5987 137.68L84.2427 133.804L82.8747 137.68H85.5987ZM95.5099 132.16V133.276H93.2899V140.5H91.9219V133.276H89.6899V132.16H95.5099ZM99.0633 133.264V135.712H101.943V136.828H99.0633V139.384H102.303V140.5H97.6953V132.148H102.303V133.264H99.0633ZM107.512 132.16C108.4 132.16 109.176 132.332 109.84 132.676C110.512 133.012 111.028 133.5 111.388 134.14C111.756 134.772 111.94 135.512 111.94 136.36C111.94 137.208 111.756 137.944 111.388 138.568C111.028 139.192 110.512 139.672 109.84 140.008C109.176 140.336 108.4 140.5 107.512 140.5H104.788V132.16H107.512ZM107.512 139.384C108.488 139.384 109.236 139.12 109.756 138.592C110.276 138.064 110.536 137.32 110.536 136.36C110.536 135.392 110.276 134.636 109.756 134.092C109.236 133.548 108.488 133.276 107.512 133.276H106.156V139.384H107.512ZM117.557 136.312C117.557 135.496 117.745 134.764 118.121 134.116C118.505 133.468 119.021 132.964 119.669 132.604C120.325 132.236 121.041 132.052 121.817 132.052C122.705 132.052 123.493 132.272 124.181 132.712C124.877 133.144 125.381 133.76 125.693 134.56H124.049C123.833 134.12 123.533 133.792 123.149 133.576C122.765 133.36 122.321 133.252 121.817 133.252C121.265 133.252 120.773 133.376 120.341 133.624C119.909 133.872 119.569 134.228 119.321 134.692C119.081 135.156 118.961 135.696 118.961 136.312C118.961 136.928 119.081 137.468 119.321 137.932C119.569 138.396 119.909 138.756 120.341 139.012C120.773 139.26 121.265 139.384 121.817 139.384C122.321 139.384 122.765 139.276 123.149 139.06C123.533 138.844 123.833 138.516 124.049 138.076H125.693C125.381 138.876 124.877 139.492 124.181 139.924C123.493 140.356 122.705 140.572 121.817 140.572C121.033 140.572 120.317 140.392 119.669 140.032C119.021 139.664 118.505 139.156 118.121 138.508C117.745 137.86 117.557 137.128 117.557 136.312ZM129.463 133.264V135.712H132.343V136.828H129.463V139.384H132.703V140.5H128.095V132.148H132.703V133.264H129.463ZM141.853 140.584C141.293 140.584 140.789 140.488 140.341 140.296C139.893 140.096 139.541 139.816 139.285 139.456C139.029 139.096 138.901 138.676 138.901 138.196H140.365C140.397 138.556 140.537 138.852 140.785 139.084C141.041 139.316 141.397 139.432 141.853 139.432C142.325 139.432 142.693 139.32 142.957 139.096C143.221 138.864 143.353 138.568 143.353 138.208C143.353 137.928 143.269 137.7 143.101 137.524C142.941 137.348 142.737 137.212 142.489 137.116C142.249 137.02 141.913 136.916 141.481 136.804C140.937 136.66 140.493 136.516 140.149 136.372C139.813 136.22 139.525 135.988 139.285 135.676C139.045 135.364 138.925 134.948 138.925 134.428C138.925 133.948 139.045 133.528 139.285 133.168C139.525 132.808 139.861 132.532 140.293 132.34C140.725 132.148 141.225 132.052 141.793 132.052C142.601 132.052 143.261 132.256 143.773 132.664C144.293 133.064 144.581 133.616 144.637 134.32H143.125C143.101 134.016 142.957 133.756 142.693 133.54C142.429 133.324 142.081 133.216 141.649 133.216C141.257 133.216 140.937 133.316 140.689 133.516C140.441 133.716 140.317 134.004 140.317 134.38C140.317 134.636 140.393 134.848 140.545 135.016C140.705 135.176 140.905 135.304 141.145 135.4C141.385 135.496 141.713 135.6 142.129 135.712C142.681 135.864 143.129 136.016 143.473 136.168C143.825 136.32 144.121 136.556 144.361 136.876C144.609 137.188 144.733 137.608 144.733 138.136C144.733 138.56 144.617 138.96 144.385 139.336C144.161 139.712 143.829 140.016 143.389 140.248C142.957 140.472 142.445 140.584 141.853 140.584ZM152.175 138.796H148.683L148.083 140.5H146.655L149.643 132.148H151.227L154.215 140.5H152.775L152.175 138.796ZM151.791 137.68L150.435 133.804L149.067 137.68H151.791ZM163.502 132.16L160.37 140.5H158.786L155.642 132.16H157.106L159.578 139.096L162.062 132.16H163.502ZM166.814 132.16V140.5H165.446V132.16H166.814ZM176.262 140.5H174.894L170.778 134.272V140.5H169.41V132.148H170.778L174.894 138.364V132.148H176.262V140.5ZM184.895 134.56C184.679 134.144 184.379 133.832 183.995 133.624C183.611 133.408 183.167 133.3 182.663 133.3C182.111 133.3 181.619 133.424 181.187 133.672C180.755 133.92 180.415 134.272 180.167 134.728C179.927 135.184 179.807 135.712 179.807 136.312C179.807 136.912 179.927 137.444 180.167 137.908C180.415 138.364 180.755 138.716 181.187 138.964C181.619 139.212 182.111 139.336 182.663 139.336C183.407 139.336 184.011 139.128 184.475 138.712C184.939 138.296 185.223 137.732 185.327 137.02H182.195V135.928H186.791V136.996C186.703 137.644 186.471 138.24 186.095 138.784C185.727 139.328 185.243 139.764 184.643 140.092C184.051 140.412 183.391 140.572 182.663 140.572C181.879 140.572 181.163 140.392 180.515 140.032C179.867 139.664 179.351 139.156 178.967 138.508C178.591 137.86 178.403 137.128 178.403 136.312C178.403 135.496 178.591 134.764 178.967 134.116C179.351 133.468 179.867 132.964 180.515 132.604C181.171 132.236 181.887 132.052 182.663 132.052C183.551 132.052 184.339 132.272 185.027 132.712C185.723 133.144 186.227 133.76 186.539 134.56H184.895ZM191.688 140.584C191.128 140.584 190.624 140.488 190.176 140.296C189.728 140.096 189.376 139.816 189.12 139.456C188.864 139.096 188.736 138.676 188.736 138.196H190.2C190.232 138.556 190.372 138.852 190.62 139.084C190.876 139.316 191.232 139.432 191.688 139.432C192.16 139.432 192.528 139.32 192.792 139.096C193.056 138.864 193.188 138.568 193.188 138.208C193.188 137.928 193.104 137.7 192.936 137.524C192.776 137.348 192.572 137.212 192.324 137.116C192.084 137.02 191.748 136.916 191.316 136.804C190.772 136.66 190.328 136.516 189.984 136.372C189.648 136.22 189.36 135.988 189.12 135.676C188.88 135.364 188.76 134.948 188.76 134.428C188.76 133.948 188.88 133.528 189.12 133.168C189.36 132.808 189.696 132.532 190.128 132.34C190.56 132.148 191.06 132.052 191.628 132.052C192.436 132.052 193.096 132.256 193.608 132.664C194.128 133.064 194.416 133.616 194.472 134.32H192.96C192.936 134.016 192.792 133.756 192.528 133.54C192.264 133.324 191.916 133.216 191.484 133.216C191.092 133.216 190.772 133.316 190.524 133.516C190.276 133.716 190.152 134.004 190.152 134.38C190.152 134.636 190.228 134.848 190.38 135.016C190.54 135.176 190.74 135.304 190.98 135.4C191.22 135.496 191.548 135.6 191.964 135.712C192.516 135.864 192.964 136.016 193.308 136.168C193.66 136.32 193.956 136.556 194.196 136.876C194.444 137.188 194.568 137.608 194.568 138.136C194.568 138.56 194.452 138.96 194.22 139.336C193.996 139.712 193.664 140.016 193.224 140.248C192.792 140.472 192.28 140.584 191.688 140.584Z" fill="#607890"/>
</svg>
